<svg width="105" height="129" viewBox="0 0 105 129" fill="none" xmlns="http://www.w3.org/2000/svg">
<path d="M6.79825 31.9326C6.51017 31.2553 6.47093 30.6658 6.68055 30.1639C6.8839 29.6473 7.21766 29.2185 7.68182 28.8774C8.1331 28.5458 8.5794 28.4015 9.02073 28.4444C9.4558 28.4725 9.81737 28.8253 10.1055 29.5025C10.381 30.1504 10.4202 30.7399 10.2232 31.2713C10.0198 31.7879 9.69249 32.212 9.24122 32.5435C8.77705 32.8846 8.3243 33.0337 7.88297 32.9908C7.43538 32.9332 7.0738 32.5804 6.79825 31.9326Z" fill="#E7D2BA"/>
<path d="M22.6337 12.7601C22.6337 12.7601 16.9112 15.1253 16.889 15.1345C16.3789 15.3454 16.1962 15.6004 16.2412 15.9922C16.3138 16.2956 16.4414 16.3198 17.0358 16.7667C17.4359 17.1143 17.5251 17.3853 17.7485 18.3189L20.1164 28.2156C20.3398 29.1492 20.3847 29.4385 20.208 30.0245C19.9152 30.838 19.8155 30.9306 19.8937 31.2573C20.0274 31.6125 20.2883 31.6842 20.7984 31.4733C20.8206 31.4641 26.8314 28.9797 26.8314 28.9797C31.9993 26.8436 34.5387 22.0748 33.3938 17.2899C32.2266 12.4116 27.5354 10.734 22.6337 12.7601ZM26.6621 27.1516C25.5475 27.5866 25.2256 27.5658 24.9914 26.7905C24.9523 26.6271 22.4056 15.9836 22.3665 15.8202C22.221 15.0082 22.4924 14.7165 23.2909 14.3865C25.3315 13.543 27.7823 16.044 28.7596 20.1287C29.7705 24.3535 28.6749 26.294 26.6621 27.1516Z" fill="#E7D2BA"/>
<path d="M52.9799 21.4024C52.6467 20.9733 52.6075 20.6637 52.5627 19.7528C52.5262 19.0097 52.4897 18.2666 52.4721 17.907L52.3826 16.0852C52.2108 12.5854 49.8659 11.2919 46.5897 11.5698C43.0026 11.8741 41.0735 14.156 42.2728 15.5948C42.9107 16.3591 44.5164 16.2951 45.1629 15.2775C45.6082 14.5657 45.5709 13.3172 46.8011 13.4294C47.6691 13.5002 47.6621 14.8247 47.7339 16.287L47.7609 16.8383C47.768 16.9821 47.603 17.0443 47.5026 16.9565C45.2299 15.1755 40.611 16.9634 40.7805 20.4153C40.8947 22.7405 42.8102 24.0944 45.393 23.8753C46.0626 23.8185 47.1532 23.5335 47.8161 22.8514C47.907 22.7474 48.0517 22.7592 48.0588 22.903C48.1552 23.4003 48.4061 23.6197 49.0279 23.567C49.9127 23.4919 52.7946 23.0068 52.7946 23.0068C53.414 22.9061 53.5994 22.77 53.6045 22.3844C53.6131 22.0708 53.4661 22.011 52.9799 21.4024ZM46.9677 22.2012C46.2083 22.386 45.396 21.4921 45.165 20.2118C44.9113 18.9576 45.3092 17.7684 46.0697 17.6076C46.8291 17.4229 47.6653 18.3148 47.8963 19.595C48.15 20.8492 47.7282 22.0404 46.9677 22.2012Z" fill="#E7D2BA"/>
<path d="M69.108 13.2581C67.7651 12.9976 67.0411 13.4421 66.1624 13.9784C66.0574 14.0555 65.9005 13.952 65.9166 13.8089C65.9921 12.9219 65.9305 12.3982 64.5918 12.5285C64.5918 12.5285 62.2079 12.7485 61.3013 12.8896C60.7589 13.0037 60.4183 13.0351 60.3203 13.4791C60.2619 13.7846 60.3953 13.8836 60.7706 14.6144C61.0496 15.1315 60.9345 16.157 60.8274 17.111L60.466 20.3308C60.3589 21.2848 60.3267 21.571 59.9433 21.9841C59.4234 22.5412 59.274 22.5853 59.2628 22.9C59.2435 23.2861 59.4839 23.5034 60.0258 23.6084C60.0494 23.613 64.7852 24.5314 64.8087 24.5359C65.3506 24.641 65.605 24.5198 65.6949 24.1473C65.7297 23.8372 65.5964 23.7383 65.221 23.0075C64.9683 22.4711 64.9768 22.1803 65.0839 21.2263L65.3544 18.8175C65.6596 16.0985 65.636 15.0217 66.5549 15.1999C67.1675 15.3187 67.2151 16.1809 67.7308 17.3775C68.5929 19.348 70.7306 19.1777 71.2858 18.0912C72.0435 16.7029 71.5113 13.7241 69.108 13.2581Z" fill="#E7D2BA"/>
<path d="M86.0669 29.4407C85.9107 29.0268 85.5076 28.8883 85.0817 28.922C83.8973 29.0412 82.5624 28.2786 82.9873 26.7277L84.3384 21.7975C84.3828 21.6355 84.4579 21.5403 84.6748 21.643L86.7139 22.6082C87.0826 22.7828 87.6143 22.7207 87.8109 22.0031C88.0076 21.2856 87.6281 20.7922 87.2594 20.6176L85.2203 19.6523C85.0034 19.5497 84.9917 19.4134 85.0361 19.2514L85.5943 17.2145C85.7275 16.7284 85.7332 16.2604 85.1692 15.9934L84.8221 15.8291C83.5423 15.2233 83.7886 18.9746 79.9057 17.1365C79.5152 16.9517 79.0053 17.0241 78.8086 17.7416C78.612 18.4592 78.9697 18.9423 79.3602 19.1271L79.9242 19.3941C80.1628 19.5071 80.1528 19.6331 80.1084 19.7951L78.6495 25.1188C77.8249 28.1279 79.6817 30.0267 81.3954 30.8379C83.8033 31.9777 86.5507 30.7157 86.0669 29.4407Z" fill="#E7D2BA"/>
<path d="M94.6399 29.3155C94.928 28.6382 95.2895 28.2855 95.7246 28.2573C96.1659 28.2144 96.6187 28.3635 97.0829 28.7046C97.5341 29.0361 97.8614 29.4602 98.0648 29.9768C98.2744 30.4787 98.2352 31.0683 97.9471 31.7456C97.6715 32.3934 97.31 32.7461 96.8624 32.8037C96.421 32.8466 95.9747 32.7023 95.5235 32.3707C95.0593 32.0296 94.7255 31.6008 94.5222 31.0842C94.3251 30.5529 94.3643 29.9633 94.6399 29.3155Z" fill="#E7D2BA"/>
<circle cx="53" cy="79" r="42.5" stroke="#BF1932" stroke-width="15"/>
<path d="M78.8333 79C78.8333 93.2673 67.2673 104.833 53 104.833C38.7326 104.833 27.1666 93.2673 27.1666 79C27.1666 64.7326 38.7326 53.1667 53 53.1667C67.2673 53.1667 78.8333 64.7326 78.8333 79Z" stroke="#009473" stroke-width="15"/>
<ellipse cx="53" cy="79" rx="16.6667" ry="16.6667" fill="#E7D2BA"/>
</svg>
