<svg width="128" height="128" viewBox="0 0 128 128" fill="none" xmlns="http://www.w3.org/2000/svg">
<g clip-path="url(#clip0_4_184)">
<rect width="128" height="128" rx="10" fill="#2D2926"/>
<circle cx="64" cy="135" r="67.5" stroke="#BF1932" stroke-width="15"/>
<circle cx="64" cy="135" r="42.5" stroke="#009473" stroke-width="15"/>
<circle cx="64" cy="135" r="25" fill="#E7D2BA"/>
<path d="M18.7982 58.9326C18.5102 58.2553 18.4709 57.6658 18.6805 57.1639C18.8839 56.6473 19.2177 56.2185 19.6818 55.8774C20.1331 55.5458 20.5794 55.4015 21.0207 55.4444C21.4558 55.4725 21.8174 55.8253 22.1055 56.5025C22.381 57.1504 22.4202 57.7399 22.2232 58.2713C22.0198 58.7879 21.6925 59.212 21.2412 59.5435C20.777 59.8846 20.3243 60.0337 19.883 59.9908C19.4354 59.9332 19.0738 59.5804 18.7982 58.9326Z" fill="#E7D2BA"/>
<path d="M34.6337 39.7601C34.6337 39.7601 28.9112 42.1253 28.8891 42.1345C28.3789 42.3454 28.1962 42.6004 28.2412 42.9922C28.3138 43.2956 28.4415 43.3198 29.0359 43.7667C29.4359 44.1143 29.5251 44.3853 29.7485 45.3189L32.1165 55.2156C32.3398 56.1492 32.3847 56.4385 32.208 57.0245C31.9152 57.838 31.8155 57.9306 31.8937 58.2573C32.0274 58.6125 32.2883 58.6842 32.7984 58.4733C32.8206 58.4641 38.8314 55.9797 38.8314 55.9797C43.9993 53.8436 46.5387 49.0748 45.3938 44.2899C44.2266 39.4116 39.5355 37.734 34.6337 39.7601ZM38.6621 54.1516C37.5475 54.5866 37.2257 54.5658 36.9914 53.7905C36.9523 53.6271 34.4057 42.9836 34.3666 42.8202C34.221 42.0082 34.4925 41.7165 35.2909 41.3865C37.3315 40.543 39.7823 43.044 40.7597 47.1287C41.7705 51.3535 40.6749 53.294 38.6621 54.1516Z" fill="#E7D2BA"/>
<path d="M64.9799 48.4024C64.6467 47.9733 64.6075 47.6637 64.5627 46.7528C64.5262 46.0097 64.4897 45.2666 64.4721 44.907L64.3826 43.0852C64.2108 39.5854 61.8659 38.2919 58.5897 38.5698C55.0026 38.8741 53.0735 41.156 54.2728 42.5948C54.9107 43.3591 56.5164 43.2951 57.1629 42.2775C57.6082 41.5657 57.5709 40.3172 58.8011 40.4294C59.6691 40.5002 59.6621 41.8247 59.7339 43.287L59.7609 43.8383C59.768 43.9821 59.603 44.0443 59.5026 43.9565C57.2299 42.1755 52.611 43.9634 52.7805 47.4153C52.8947 49.7405 54.8102 51.0944 57.393 50.8753C58.0626 50.8185 59.1532 50.5335 59.8161 49.8514C59.907 49.7474 60.0517 49.7592 60.0588 49.903C60.1552 50.4003 60.4061 50.6197 61.0279 50.567C61.9127 50.4919 64.7946 50.0068 64.7946 50.0068C65.414 49.9061 65.5994 49.77 65.6045 49.3844C65.6131 49.0708 65.4661 49.011 64.9799 48.4024ZM58.9677 49.2012C58.2083 49.386 57.396 48.4921 57.165 47.2118C56.9113 45.9576 57.3092 44.7684 58.0697 44.6076C58.8291 44.4229 59.6653 45.3148 59.8963 46.595C60.15 47.8492 59.7282 49.0404 58.9677 49.2012Z" fill="#E7D2BA"/>
<path d="M81.108 40.2581C79.7651 39.9976 79.0411 40.4421 78.1624 40.9784C78.0574 41.0555 77.9005 40.952 77.9166 40.8089C77.9921 39.9219 77.9305 39.3982 76.5918 39.5285C76.5918 39.5285 74.2079 39.7486 73.3013 39.8896C72.7589 40.0037 72.4183 40.0351 72.3203 40.4791C72.2619 40.7846 72.3953 40.8836 72.7706 41.6144C73.0496 42.1315 72.9345 43.157 72.8274 44.111L72.466 47.3308C72.3589 48.2848 72.3267 48.571 71.9433 48.9841C71.4234 49.5412 71.274 49.5854 71.2628 49.9C71.2435 50.2861 71.4839 50.5034 72.0258 50.6084C72.0494 50.613 76.7852 51.5314 76.8087 51.5359C77.3506 51.641 77.605 51.5198 77.6949 51.1473C77.7297 50.8372 77.5964 50.7383 77.221 50.0075C76.9683 49.4711 76.9768 49.1803 77.0839 48.2263L77.3544 45.8175C77.6596 43.0985 77.636 42.0217 78.5549 42.1999C79.1675 42.3187 79.2151 43.1809 79.7308 44.3775C80.5929 46.348 82.7306 46.1777 83.2858 45.0912C84.0435 43.7029 83.5113 40.7241 81.108 40.2581Z" fill="#E7D2BA"/>
<path d="M98.0669 56.4407C97.9107 56.0268 97.5076 55.8883 97.0817 55.922C95.8973 56.0412 94.5624 55.2786 94.9873 53.7277L96.3384 48.7975C96.3828 48.6355 96.4579 48.5403 96.6748 48.643L98.7139 49.6082C99.0826 49.7828 99.6143 49.7207 99.8109 49.0031C100.008 48.2856 99.6281 47.7922 99.2594 47.6176L97.2203 46.6523C97.0034 46.5497 96.9917 46.4134 97.0361 46.2514L97.5943 44.2145C97.7275 43.7284 97.7332 43.2604 97.1692 42.9934L96.8221 42.8291C95.5423 42.2233 95.7886 45.9746 91.9057 44.1365C91.5152 43.9517 91.0053 44.0241 90.8086 44.7416C90.612 45.4592 90.9697 45.9423 91.3602 46.1271L91.9242 46.3941C92.1628 46.5071 92.1528 46.6331 92.1084 46.7951L90.6495 52.1188C89.8249 55.1279 91.6817 57.0267 93.3954 57.8379C95.8033 58.9777 98.5507 57.7157 98.0669 56.4407Z" fill="#E7D2BA"/>
<path d="M106.64 56.3155C106.928 55.6382 107.29 55.2855 107.725 55.2573C108.166 55.2144 108.619 55.3635 109.083 55.7046C109.534 56.0361 109.861 56.4602 110.065 56.9768C110.274 57.4787 110.235 58.0683 109.947 58.7456C109.672 59.3934 109.31 59.7461 108.862 59.8037C108.421 59.8466 107.975 59.7023 107.523 59.3707C107.059 59.0296 106.726 58.6008 106.522 58.0842C106.325 57.5529 106.364 56.9633 106.64 56.3155Z" fill="#E7D2BA"/>
</g>
<defs>
<clipPath id="clip0_4_184">
<rect width="128" height="128" rx="10" fill="white"/>
</clipPath>
</defs>
</svg>
